<?xml version="1.0" encoding="utf-8"?>
<!-- Generator: Adobe Illustrator 24.1.0, SVG Export Plug-In . SVG Version: 6.00 Build 0)  -->
<svg version="1.1" id="Layer_1" xmlns="http://www.w3.org/2000/svg" xmlns:xlink="http://www.w3.org/1999/xlink" x="0px" y="0px"
	 viewBox="0 0 792 792" style="enable-background:new 0 0 792 792;" xml:space="preserve">
<g>
	<g transform="translate(264,48) scale(4.12)">
		<rect x="0" y="0" width="6" height="6"/>
	</g>
	<g transform="translate(312,48) scale(4.12)">
		<rect x="0" y="0" width="6" height="6"/>
	</g>
	<g transform="translate(336,48) scale(4.12)">
		<rect x="0" y="0" width="6" height="6"/>
	</g>
	<g transform="translate(360,48) scale(4.12)">
		<rect x="0" y="0" width="6" height="6"/>
	</g>
	<g transform="translate(408,48) scale(4.12)">
		<rect x="0" y="0" width="6" height="6"/>
	</g>
	<g transform="translate(432,48) scale(4.12)">
		<rect x="0" y="0" width="6" height="6"/>
	</g>
	<g transform="translate(480,48) scale(4.12)">
		<rect x="0" y="0" width="6" height="6"/>
	</g>
	<g transform="translate(504,48) scale(4.12)">
		<rect x="0" y="0" width="6" height="6"/>
	</g>
	<g transform="translate(528,48) scale(4.12)">
		<rect x="0" y="0" width="6" height="6"/>
	</g>
	<g transform="translate(336,72) scale(4.12)">
		<rect x="0" y="0" width="6" height="6"/>
	</g>
	<g transform="translate(456,72) scale(4.12)">
		<rect x="0" y="0" width="6" height="6"/>
	</g>
	<g transform="translate(480,72) scale(4.12)">
		<rect x="0" y="0" width="6" height="6"/>
	</g>
	<g transform="translate(240,96) scale(4.12)">
		<rect x="0" y="0" width="6" height="6"/>
	</g>
	<g transform="translate(264,96) scale(4.12)">
		<rect x="0" y="0" width="6" height="6"/>
	</g>
	<g transform="translate(288,96) scale(4.12)">
		<rect x="0" y="0" width="6" height="6"/>
	</g>
	<g transform="translate(312,96) scale(4.12)">
		<rect x="0" y="0" width="6" height="6"/>
	</g>
	<g transform="translate(360,96) scale(4.12)">
		<rect x="0" y="0" width="6" height="6"/>
	</g>
	<g transform="translate(384,96) scale(4.12)">
		<rect x="0" y="0" width="6" height="6"/>
	</g>
	<g transform="translate(408,96) scale(4.12)">
		<rect x="0" y="0" width="6" height="6"/>
	</g>
	<g transform="translate(504,96) scale(4.12)">
		<rect x="0" y="0" width="6" height="6"/>
	</g>
	<g transform="translate(528,96) scale(4.12)">
		<rect x="0" y="0" width="6" height="6"/>
	</g>
	<g transform="translate(240,120) scale(4.12)">
		<rect x="0" y="0" width="6" height="6"/>
	</g>
	<g transform="translate(264,120) scale(4.12)">
		<rect x="0" y="0" width="6" height="6"/>
	</g>
	<g transform="translate(288,120) scale(4.12)">
		<rect x="0" y="0" width="6" height="6"/>
	</g>
	<g transform="translate(360,120) scale(4.12)">
		<rect x="0" y="0" width="6" height="6"/>
	</g>
	<g transform="translate(384,120) scale(4.12)">
		<rect x="0" y="0" width="6" height="6"/>
	</g>
	<g transform="translate(456,120) scale(4.12)">
		<rect x="0" y="0" width="6" height="6"/>
	</g>
	<g transform="translate(504,120) scale(4.12)">
		<rect x="0" y="0" width="6" height="6"/>
	</g>
	<g transform="translate(240,144) scale(4.12)">
		<rect x="0" y="0" width="6" height="6"/>
	</g>
	<g transform="translate(264,144) scale(4.12)">
		<rect x="0" y="0" width="6" height="6"/>
	</g>
	<g transform="translate(384,144) scale(4.12)">
		<rect x="0" y="0" width="6" height="6"/>
	</g>
	<g transform="translate(432,144) scale(4.12)">
		<rect x="0" y="0" width="6" height="6"/>
	</g>
	<g transform="translate(456,144) scale(4.12)">
		<rect x="0" y="0" width="6" height="6"/>
	</g>
	<g transform="translate(480,144) scale(4.12)">
		<rect x="0" y="0" width="6" height="6"/>
	</g>
	<g transform="translate(504,144) scale(4.12)">
		<rect x="0" y="0" width="6" height="6"/>
	</g>
	<g transform="translate(240,168) scale(4.12)">
		<rect x="0" y="0" width="6" height="6"/>
	</g>
	<g transform="translate(288,168) scale(4.12)">
		<rect x="0" y="0" width="6" height="6"/>
	</g>
	<g transform="translate(312,168) scale(4.12)">
		<rect x="0" y="0" width="6" height="6"/>
	</g>
	<g transform="translate(336,168) scale(4.12)">
		<rect x="0" y="0" width="6" height="6"/>
	</g>
	<g transform="translate(432,168) scale(4.12)">
		<rect x="0" y="0" width="6" height="6"/>
	</g>
	<g transform="translate(456,168) scale(4.12)">
		<rect x="0" y="0" width="6" height="6"/>
	</g>
	<g transform="translate(528,168) scale(4.12)">
		<rect x="0" y="0" width="6" height="6"/>
	</g>
	<g transform="translate(240,192) scale(4.12)">
		<rect x="0" y="0" width="6" height="6"/>
	</g>
	<g transform="translate(288,192) scale(4.12)">
		<rect x="0" y="0" width="6" height="6"/>
	</g>
	<g transform="translate(336,192) scale(4.12)">
		<rect x="0" y="0" width="6" height="6"/>
	</g>
	<g transform="translate(384,192) scale(4.12)">
		<rect x="0" y="0" width="6" height="6"/>
	</g>
	<g transform="translate(432,192) scale(4.12)">
		<rect x="0" y="0" width="6" height="6"/>
	</g>
	<g transform="translate(480,192) scale(4.12)">
		<rect x="0" y="0" width="6" height="6"/>
	</g>
	<g transform="translate(528,192) scale(4.12)">
		<rect x="0" y="0" width="6" height="6"/>
	</g>
	<g transform="translate(240,216) scale(4.12)">
		<rect x="0" y="0" width="6" height="6"/>
	</g>
	<g transform="translate(288,216) scale(4.12)">
		<rect x="0" y="0" width="6" height="6"/>
	</g>
	<g transform="translate(312,216) scale(4.12)">
		<rect x="0" y="0" width="6" height="6"/>
	</g>
	<g transform="translate(360,216) scale(4.12)">
		<rect x="0" y="0" width="6" height="6"/>
	</g>
	<g transform="translate(384,216) scale(4.12)">
		<rect x="0" y="0" width="6" height="6"/>
	</g>
	<g transform="translate(408,216) scale(4.12)">
		<rect x="0" y="0" width="6" height="6"/>
	</g>
	<g transform="translate(432,216) scale(4.12)">
		<rect x="0" y="0" width="6" height="6"/>
	</g>
	<g transform="translate(528,216) scale(4.12)">
		<rect x="0" y="0" width="6" height="6"/>
	</g>
	<g transform="translate(48,240) scale(4.12)">
		<rect x="0" y="0" width="6" height="6"/>
	</g>
	<g transform="translate(96,240) scale(4.12)">
		<rect x="0" y="0" width="6" height="6"/>
	</g>
	<g transform="translate(120,240) scale(4.12)">
		<rect x="0" y="0" width="6" height="6"/>
	</g>
	<g transform="translate(144,240) scale(4.12)">
		<rect x="0" y="0" width="6" height="6"/>
	</g>
	<g transform="translate(168,240) scale(4.12)">
		<rect x="0" y="0" width="6" height="6"/>
	</g>
	<g transform="translate(192,240) scale(4.12)">
		<rect x="0" y="0" width="6" height="6"/>
	</g>
	<g transform="translate(288,240) scale(4.12)">
		<rect x="0" y="0" width="6" height="6"/>
	</g>
	<g transform="translate(312,240) scale(4.12)">
		<rect x="0" y="0" width="6" height="6"/>
	</g>
	<g transform="translate(336,240) scale(4.12)">
		<rect x="0" y="0" width="6" height="6"/>
	</g>
	<g transform="translate(360,240) scale(4.12)">
		<rect x="0" y="0" width="6" height="6"/>
	</g>
	<g transform="translate(384,240) scale(4.12)">
		<rect x="0" y="0" width="6" height="6"/>
	</g>
	<g transform="translate(408,240) scale(4.12)">
		<rect x="0" y="0" width="6" height="6"/>
	</g>
	<g transform="translate(432,240) scale(4.12)">
		<rect x="0" y="0" width="6" height="6"/>
	</g>
	<g transform="translate(456,240) scale(4.12)">
		<rect x="0" y="0" width="6" height="6"/>
	</g>
	<g transform="translate(504,240) scale(4.12)">
		<rect x="0" y="0" width="6" height="6"/>
	</g>
	<g transform="translate(576,240) scale(4.12)">
		<rect x="0" y="0" width="6" height="6"/>
	</g>
	<g transform="translate(600,240) scale(4.12)">
		<rect x="0" y="0" width="6" height="6"/>
	</g>
	<g transform="translate(624,240) scale(4.12)">
		<rect x="0" y="0" width="6" height="6"/>
	</g>
	<g transform="translate(648,240) scale(4.12)">
		<rect x="0" y="0" width="6" height="6"/>
	</g>
	<g transform="translate(672,240) scale(4.12)">
		<rect x="0" y="0" width="6" height="6"/>
	</g>
	<g transform="translate(48,264) scale(4.12)">
		<rect x="0" y="0" width="6" height="6"/>
	</g>
	<g transform="translate(96,264) scale(4.12)">
		<rect x="0" y="0" width="6" height="6"/>
	</g>
	<g transform="translate(120,264) scale(4.12)">
		<rect x="0" y="0" width="6" height="6"/>
	</g>
	<g transform="translate(144,264) scale(4.12)">
		<rect x="0" y="0" width="6" height="6"/>
	</g>
	<g transform="translate(168,264) scale(4.12)">
		<rect x="0" y="0" width="6" height="6"/>
	</g>
	<g transform="translate(264,264) scale(4.12)">
		<rect x="0" y="0" width="6" height="6"/>
	</g>
	<g transform="translate(288,264) scale(4.12)">
		<rect x="0" y="0" width="6" height="6"/>
	</g>
	<g transform="translate(312,264) scale(4.12)">
		<rect x="0" y="0" width="6" height="6"/>
	</g>
	<g transform="translate(336,264) scale(4.12)">
		<rect x="0" y="0" width="6" height="6"/>
	</g>
	<g transform="translate(360,264) scale(4.12)">
		<rect x="0" y="0" width="6" height="6"/>
	</g>
	<g transform="translate(408,264) scale(4.12)">
		<rect x="0" y="0" width="6" height="6"/>
	</g>
	<g transform="translate(432,264) scale(4.12)">
		<rect x="0" y="0" width="6" height="6"/>
	</g>
	<g transform="translate(456,264) scale(4.12)">
		<rect x="0" y="0" width="6" height="6"/>
	</g>
	<g transform="translate(480,264) scale(4.12)">
		<rect x="0" y="0" width="6" height="6"/>
	</g>
	<g transform="translate(504,264) scale(4.12)">
		<rect x="0" y="0" width="6" height="6"/>
	</g>
	<g transform="translate(528,264) scale(4.12)">
		<rect x="0" y="0" width="6" height="6"/>
	</g>
	<g transform="translate(552,264) scale(4.12)">
		<rect x="0" y="0" width="6" height="6"/>
	</g>
	<g transform="translate(576,264) scale(4.12)">
		<rect x="0" y="0" width="6" height="6"/>
	</g>
	<g transform="translate(600,264) scale(4.12)">
		<rect x="0" y="0" width="6" height="6"/>
	</g>
	<g transform="translate(624,264) scale(4.12)">
		<rect x="0" y="0" width="6" height="6"/>
	</g>
	<g transform="translate(720,264) scale(4.12)">
		<rect x="0" y="0" width="6" height="6"/>
	</g>
	<g transform="translate(48,288) scale(4.12)">
		<rect x="0" y="0" width="6" height="6"/>
	</g>
	<g transform="translate(192,288) scale(4.12)">
		<rect x="0" y="0" width="6" height="6"/>
	</g>
	<g transform="translate(240,288) scale(4.12)">
		<rect x="0" y="0" width="6" height="6"/>
	</g>
	<g transform="translate(264,288) scale(4.12)">
		<rect x="0" y="0" width="6" height="6"/>
	</g>
	<g transform="translate(312,288) scale(4.12)">
		<rect x="0" y="0" width="6" height="6"/>
	</g>
	<g transform="translate(408,288) scale(4.12)">
		<rect x="0" y="0" width="6" height="6"/>
	</g>
	<g transform="translate(432,288) scale(4.12)">
		<rect x="0" y="0" width="6" height="6"/>
	</g>
	<g transform="translate(528,288) scale(4.12)">
		<rect x="0" y="0" width="6" height="6"/>
	</g>
	<g transform="translate(552,288) scale(4.12)">
		<rect x="0" y="0" width="6" height="6"/>
	</g>
	<g transform="translate(576,288) scale(4.12)">
		<rect x="0" y="0" width="6" height="6"/>
	</g>
	<g transform="translate(144,312) scale(4.12)">
		<rect x="0" y="0" width="6" height="6"/>
	</g>
	<g transform="translate(216,312) scale(4.12)">
		<rect x="0" y="0" width="6" height="6"/>
	</g>
	<g transform="translate(336,312) scale(4.12)">
		<rect x="0" y="0" width="6" height="6"/>
	</g>
	<g transform="translate(408,312) scale(4.12)">
		<rect x="0" y="0" width="6" height="6"/>
	</g>
	<g transform="translate(432,312) scale(4.12)">
		<rect x="0" y="0" width="6" height="6"/>
	</g>
	<g transform="translate(600,312) scale(4.12)">
		<rect x="0" y="0" width="6" height="6"/>
	</g>
	<g transform="translate(648,312) scale(4.12)">
		<rect x="0" y="0" width="6" height="6"/>
	</g>
	<g transform="translate(696,312) scale(4.12)">
		<rect x="0" y="0" width="6" height="6"/>
	</g>
	<g transform="translate(192,336) scale(4.12)">
		<rect x="0" y="0" width="6" height="6"/>
	</g>
	<g transform="translate(288,336) scale(4.12)">
		<rect x="0" y="0" width="6" height="6"/>
	</g>
	<g transform="translate(312,336) scale(4.12)">
		<rect x="0" y="0" width="6" height="6"/>
	</g>
	<g transform="translate(336,336) scale(4.12)">
		<rect x="0" y="0" width="6" height="6"/>
	</g>
	<g transform="translate(456,336) scale(4.12)">
		<rect x="0" y="0" width="6" height="6"/>
	</g>
	<g transform="translate(480,336) scale(4.12)">
		<rect x="0" y="0" width="6" height="6"/>
	</g>
	<g transform="translate(648,336) scale(4.12)">
		<rect x="0" y="0" width="6" height="6"/>
	</g>
	<g transform="translate(672,336) scale(4.12)">
		<rect x="0" y="0" width="6" height="6"/>
	</g>
	<g transform="translate(48,360) scale(4.12)">
		<rect x="0" y="0" width="6" height="6"/>
	</g>
	<g transform="translate(96,360) scale(4.12)">
		<rect x="0" y="0" width="6" height="6"/>
	</g>
	<g transform="translate(168,360) scale(4.12)">
		<rect x="0" y="0" width="6" height="6"/>
	</g>
	<g transform="translate(264,360) scale(4.12)">
		<rect x="0" y="0" width="6" height="6"/>
	</g>
	<g transform="translate(288,360) scale(4.12)">
		<rect x="0" y="0" width="6" height="6"/>
	</g>
	<g transform="translate(336,360) scale(4.12)">
		<rect x="0" y="0" width="6" height="6"/>
	</g>
	<g transform="translate(432,360) scale(4.12)">
		<rect x="0" y="0" width="6" height="6"/>
	</g>
	<g transform="translate(456,360) scale(4.12)">
		<rect x="0" y="0" width="6" height="6"/>
	</g>
	<g transform="translate(480,360) scale(4.12)">
		<rect x="0" y="0" width="6" height="6"/>
	</g>
	<g transform="translate(504,360) scale(4.12)">
		<rect x="0" y="0" width="6" height="6"/>
	</g>
	<g transform="translate(528,360) scale(4.12)">
		<rect x="0" y="0" width="6" height="6"/>
	</g>
	<g transform="translate(552,360) scale(4.12)">
		<rect x="0" y="0" width="6" height="6"/>
	</g>
	<g transform="translate(576,360) scale(4.12)">
		<rect x="0" y="0" width="6" height="6"/>
	</g>
	<g transform="translate(624,360) scale(4.12)">
		<rect x="0" y="0" width="6" height="6"/>
	</g>
	<g transform="translate(720,360) scale(4.12)">
		<rect x="0" y="0" width="6" height="6"/>
	</g>
	<g transform="translate(72,384) scale(4.12)">
		<rect x="0" y="0" width="6" height="6"/>
	</g>
	<g transform="translate(120,384) scale(4.12)">
		<rect x="0" y="0" width="6" height="6"/>
	</g>
	<g transform="translate(144,384) scale(4.12)">
		<rect x="0" y="0" width="6" height="6"/>
	</g>
	<g transform="translate(168,384) scale(4.12)">
		<rect x="0" y="0" width="6" height="6"/>
	</g>
	<g transform="translate(192,384) scale(4.12)">
		<rect x="0" y="0" width="6" height="6"/>
	</g>
	<g transform="translate(240,384) scale(4.12)">
		<rect x="0" y="0" width="6" height="6"/>
	</g>
	<g transform="translate(288,384) scale(4.12)">
		<rect x="0" y="0" width="6" height="6"/>
	</g>
	<g transform="translate(336,384) scale(4.12)">
		<rect x="0" y="0" width="6" height="6"/>
	</g>
	<g transform="translate(360,384) scale(4.12)">
		<rect x="0" y="0" width="6" height="6"/>
	</g>
	<g transform="translate(408,384) scale(4.12)">
		<rect x="0" y="0" width="6" height="6"/>
	</g>
	<g transform="translate(456,384) scale(4.12)">
		<rect x="0" y="0" width="6" height="6"/>
	</g>
	<g transform="translate(576,384) scale(4.12)">
		<rect x="0" y="0" width="6" height="6"/>
	</g>
	<g transform="translate(600,384) scale(4.12)">
		<rect x="0" y="0" width="6" height="6"/>
	</g>
	<g transform="translate(648,384) scale(4.12)">
		<rect x="0" y="0" width="6" height="6"/>
	</g>
	<g transform="translate(672,384) scale(4.12)">
		<rect x="0" y="0" width="6" height="6"/>
	</g>
	<g transform="translate(48,408) scale(4.12)">
		<rect x="0" y="0" width="6" height="6"/>
	</g>
	<g transform="translate(72,408) scale(4.12)">
		<rect x="0" y="0" width="6" height="6"/>
	</g>
	<g transform="translate(96,408) scale(4.12)">
		<rect x="0" y="0" width="6" height="6"/>
	</g>
	<g transform="translate(144,408) scale(4.12)">
		<rect x="0" y="0" width="6" height="6"/>
	</g>
	<g transform="translate(240,408) scale(4.12)">
		<rect x="0" y="0" width="6" height="6"/>
	</g>
	<g transform="translate(288,408) scale(4.12)">
		<rect x="0" y="0" width="6" height="6"/>
	</g>
	<g transform="translate(408,408) scale(4.12)">
		<rect x="0" y="0" width="6" height="6"/>
	</g>
	<g transform="translate(432,408) scale(4.12)">
		<rect x="0" y="0" width="6" height="6"/>
	</g>
	<g transform="translate(504,408) scale(4.12)">
		<rect x="0" y="0" width="6" height="6"/>
	</g>
	<g transform="translate(552,408) scale(4.12)">
		<rect x="0" y="0" width="6" height="6"/>
	</g>
	<g transform="translate(576,408) scale(4.12)">
		<rect x="0" y="0" width="6" height="6"/>
	</g>
	<g transform="translate(600,408) scale(4.12)">
		<rect x="0" y="0" width="6" height="6"/>
	</g>
	<g transform="translate(624,408) scale(4.12)">
		<rect x="0" y="0" width="6" height="6"/>
	</g>
	<g transform="translate(696,408) scale(4.12)">
		<rect x="0" y="0" width="6" height="6"/>
	</g>
	<g transform="translate(48,432) scale(4.12)">
		<rect x="0" y="0" width="6" height="6"/>
	</g>
	<g transform="translate(192,432) scale(4.12)">
		<rect x="0" y="0" width="6" height="6"/>
	</g>
	<g transform="translate(216,432) scale(4.12)">
		<rect x="0" y="0" width="6" height="6"/>
	</g>
	<g transform="translate(240,432) scale(4.12)">
		<rect x="0" y="0" width="6" height="6"/>
	</g>
	<g transform="translate(264,432) scale(4.12)">
		<rect x="0" y="0" width="6" height="6"/>
	</g>
	<g transform="translate(312,432) scale(4.12)">
		<rect x="0" y="0" width="6" height="6"/>
	</g>
	<g transform="translate(384,432) scale(4.12)">
		<rect x="0" y="0" width="6" height="6"/>
	</g>
	<g transform="translate(408,432) scale(4.12)">
		<rect x="0" y="0" width="6" height="6"/>
	</g>
	<g transform="translate(432,432) scale(4.12)">
		<rect x="0" y="0" width="6" height="6"/>
	</g>
	<g transform="translate(456,432) scale(4.12)">
		<rect x="0" y="0" width="6" height="6"/>
	</g>
	<g transform="translate(528,432) scale(4.12)">
		<rect x="0" y="0" width="6" height="6"/>
	</g>
	<g transform="translate(600,432) scale(4.12)">
		<rect x="0" y="0" width="6" height="6"/>
	</g>
	<g transform="translate(648,432) scale(4.12)">
		<rect x="0" y="0" width="6" height="6"/>
	</g>
	<g transform="translate(672,432) scale(4.12)">
		<rect x="0" y="0" width="6" height="6"/>
	</g>
	<g transform="translate(48,456) scale(4.12)">
		<rect x="0" y="0" width="6" height="6"/>
	</g>
	<g transform="translate(72,456) scale(4.12)">
		<rect x="0" y="0" width="6" height="6"/>
	</g>
	<g transform="translate(288,456) scale(4.12)">
		<rect x="0" y="0" width="6" height="6"/>
	</g>
	<g transform="translate(312,456) scale(4.12)">
		<rect x="0" y="0" width="6" height="6"/>
	</g>
	<g transform="translate(336,456) scale(4.12)">
		<rect x="0" y="0" width="6" height="6"/>
	</g>
	<g transform="translate(360,456) scale(4.12)">
		<rect x="0" y="0" width="6" height="6"/>
	</g>
	<g transform="translate(384,456) scale(4.12)">
		<rect x="0" y="0" width="6" height="6"/>
	</g>
	<g transform="translate(480,456) scale(4.12)">
		<rect x="0" y="0" width="6" height="6"/>
	</g>
	<g transform="translate(504,456) scale(4.12)">
		<rect x="0" y="0" width="6" height="6"/>
	</g>
	<g transform="translate(528,456) scale(4.12)">
		<rect x="0" y="0" width="6" height="6"/>
	</g>
	<g transform="translate(576,456) scale(4.12)">
		<rect x="0" y="0" width="6" height="6"/>
	</g>
	<g transform="translate(600,456) scale(4.12)">
		<rect x="0" y="0" width="6" height="6"/>
	</g>
	<g transform="translate(624,456) scale(4.12)">
		<rect x="0" y="0" width="6" height="6"/>
	</g>
	<g transform="translate(672,456) scale(4.12)">
		<rect x="0" y="0" width="6" height="6"/>
	</g>
	<g transform="translate(720,456) scale(4.12)">
		<rect x="0" y="0" width="6" height="6"/>
	</g>
	<g transform="translate(48,480) scale(4.12)">
		<rect x="0" y="0" width="6" height="6"/>
	</g>
	<g transform="translate(96,480) scale(4.12)">
		<rect x="0" y="0" width="6" height="6"/>
	</g>
	<g transform="translate(120,480) scale(4.12)">
		<rect x="0" y="0" width="6" height="6"/>
	</g>
	<g transform="translate(192,480) scale(4.12)">
		<rect x="0" y="0" width="6" height="6"/>
	</g>
	<g transform="translate(216,480) scale(4.12)">
		<rect x="0" y="0" width="6" height="6"/>
	</g>
	<g transform="translate(264,480) scale(4.12)">
		<rect x="0" y="0" width="6" height="6"/>
	</g>
	<g transform="translate(288,480) scale(4.12)">
		<rect x="0" y="0" width="6" height="6"/>
	</g>
	<g transform="translate(336,480) scale(4.12)">
		<rect x="0" y="0" width="6" height="6"/>
	</g>
	<g transform="translate(360,480) scale(4.12)">
		<rect x="0" y="0" width="6" height="6"/>
	</g>
	<g transform="translate(384,480) scale(4.12)">
		<rect x="0" y="0" width="6" height="6"/>
	</g>
	<g transform="translate(432,480) scale(4.12)">
		<rect x="0" y="0" width="6" height="6"/>
	</g>
	<g transform="translate(480,480) scale(4.12)">
		<rect x="0" y="0" width="6" height="6"/>
	</g>
	<g transform="translate(528,480) scale(4.12)">
		<rect x="0" y="0" width="6" height="6"/>
	</g>
	<g transform="translate(552,480) scale(4.12)">
		<rect x="0" y="0" width="6" height="6"/>
	</g>
	<g transform="translate(600,480) scale(4.12)">
		<rect x="0" y="0" width="6" height="6"/>
	</g>
	<g transform="translate(672,480) scale(4.12)">
		<rect x="0" y="0" width="6" height="6"/>
	</g>
	<g transform="translate(48,504) scale(4.12)">
		<rect x="0" y="0" width="6" height="6"/>
	</g>
	<g transform="translate(120,504) scale(4.12)">
		<rect x="0" y="0" width="6" height="6"/>
	</g>
	<g transform="translate(216,504) scale(4.12)">
		<rect x="0" y="0" width="6" height="6"/>
	</g>
	<g transform="translate(240,504) scale(4.12)">
		<rect x="0" y="0" width="6" height="6"/>
	</g>
	<g transform="translate(264,504) scale(4.12)">
		<rect x="0" y="0" width="6" height="6"/>
	</g>
	<g transform="translate(432,504) scale(4.12)">
		<rect x="0" y="0" width="6" height="6"/>
	</g>
	<g transform="translate(504,504) scale(4.12)">
		<rect x="0" y="0" width="6" height="6"/>
	</g>
	<g transform="translate(528,504) scale(4.12)">
		<rect x="0" y="0" width="6" height="6"/>
	</g>
	<g transform="translate(576,504) scale(4.12)">
		<rect x="0" y="0" width="6" height="6"/>
	</g>
	<g transform="translate(600,504) scale(4.12)">
		<rect x="0" y="0" width="6" height="6"/>
	</g>
	<g transform="translate(624,504) scale(4.12)">
		<rect x="0" y="0" width="6" height="6"/>
	</g>
	<g transform="translate(696,504) scale(4.12)">
		<rect x="0" y="0" width="6" height="6"/>
	</g>
	<g transform="translate(48,528) scale(4.12)">
		<rect x="0" y="0" width="6" height="6"/>
	</g>
	<g transform="translate(120,528) scale(4.12)">
		<rect x="0" y="0" width="6" height="6"/>
	</g>
	<g transform="translate(168,528) scale(4.12)">
		<rect x="0" y="0" width="6" height="6"/>
	</g>
	<g transform="translate(192,528) scale(4.12)">
		<rect x="0" y="0" width="6" height="6"/>
	</g>
	<g transform="translate(264,528) scale(4.12)">
		<rect x="0" y="0" width="6" height="6"/>
	</g>
	<g transform="translate(312,528) scale(4.12)">
		<rect x="0" y="0" width="6" height="6"/>
	</g>
	<g transform="translate(336,528) scale(4.12)">
		<rect x="0" y="0" width="6" height="6"/>
	</g>
	<g transform="translate(408,528) scale(4.12)">
		<rect x="0" y="0" width="6" height="6"/>
	</g>
	<g transform="translate(456,528) scale(4.12)">
		<rect x="0" y="0" width="6" height="6"/>
	</g>
	<g transform="translate(528,528) scale(4.12)">
		<rect x="0" y="0" width="6" height="6"/>
	</g>
	<g transform="translate(552,528) scale(4.12)">
		<rect x="0" y="0" width="6" height="6"/>
	</g>
	<g transform="translate(576,528) scale(4.12)">
		<rect x="0" y="0" width="6" height="6"/>
	</g>
	<g transform="translate(600,528) scale(4.12)">
		<rect x="0" y="0" width="6" height="6"/>
	</g>
	<g transform="translate(624,528) scale(4.12)">
		<rect x="0" y="0" width="6" height="6"/>
	</g>
	<g transform="translate(672,528) scale(4.12)">
		<rect x="0" y="0" width="6" height="6"/>
	</g>
	<g transform="translate(696,528) scale(4.12)">
		<rect x="0" y="0" width="6" height="6"/>
	</g>
	<g transform="translate(720,528) scale(4.12)">
		<rect x="0" y="0" width="6" height="6"/>
	</g>
	<g transform="translate(240,552) scale(4.12)">
		<rect x="0" y="0" width="6" height="6"/>
	</g>
	<g transform="translate(288,552) scale(4.12)">
		<rect x="0" y="0" width="6" height="6"/>
	</g>
	<g transform="translate(312,552) scale(4.12)">
		<rect x="0" y="0" width="6" height="6"/>
	</g>
	<g transform="translate(336,552) scale(4.12)">
		<rect x="0" y="0" width="6" height="6"/>
	</g>
	<g transform="translate(360,552) scale(4.12)">
		<rect x="0" y="0" width="6" height="6"/>
	</g>
	<g transform="translate(408,552) scale(4.12)">
		<rect x="0" y="0" width="6" height="6"/>
	</g>
	<g transform="translate(528,552) scale(4.12)">
		<rect x="0" y="0" width="6" height="6"/>
	</g>
	<g transform="translate(624,552) scale(4.12)">
		<rect x="0" y="0" width="6" height="6"/>
	</g>
	<g transform="translate(648,552) scale(4.12)">
		<rect x="0" y="0" width="6" height="6"/>
	</g>
	<g transform="translate(672,552) scale(4.12)">
		<rect x="0" y="0" width="6" height="6"/>
	</g>
	<g transform="translate(696,552) scale(4.12)">
		<rect x="0" y="0" width="6" height="6"/>
	</g>
	<g transform="translate(720,552) scale(4.12)">
		<rect x="0" y="0" width="6" height="6"/>
	</g>
	<g transform="translate(288,576) scale(4.12)">
		<rect x="0" y="0" width="6" height="6"/>
	</g>
	<g transform="translate(312,576) scale(4.12)">
		<rect x="0" y="0" width="6" height="6"/>
	</g>
	<g transform="translate(336,576) scale(4.12)">
		<rect x="0" y="0" width="6" height="6"/>
	</g>
	<g transform="translate(360,576) scale(4.12)">
		<rect x="0" y="0" width="6" height="6"/>
	</g>
	<g transform="translate(384,576) scale(4.12)">
		<rect x="0" y="0" width="6" height="6"/>
	</g>
	<g transform="translate(408,576) scale(4.12)">
		<rect x="0" y="0" width="6" height="6"/>
	</g>
	<g transform="translate(456,576) scale(4.12)">
		<rect x="0" y="0" width="6" height="6"/>
	</g>
	<g transform="translate(480,576) scale(4.12)">
		<rect x="0" y="0" width="6" height="6"/>
	</g>
	<g transform="translate(504,576) scale(4.12)">
		<rect x="0" y="0" width="6" height="6"/>
	</g>
	<g transform="translate(528,576) scale(4.12)">
		<rect x="0" y="0" width="6" height="6"/>
	</g>
	<g transform="translate(576,576) scale(4.12)">
		<rect x="0" y="0" width="6" height="6"/>
	</g>
	<g transform="translate(624,576) scale(4.12)">
		<rect x="0" y="0" width="6" height="6"/>
	</g>
	<g transform="translate(648,576) scale(4.12)">
		<rect x="0" y="0" width="6" height="6"/>
	</g>
	<g transform="translate(672,576) scale(4.12)">
		<rect x="0" y="0" width="6" height="6"/>
	</g>
	<g transform="translate(240,600) scale(4.12)">
		<rect x="0" y="0" width="6" height="6"/>
	</g>
	<g transform="translate(264,600) scale(4.12)">
		<rect x="0" y="0" width="6" height="6"/>
	</g>
	<g transform="translate(288,600) scale(4.12)">
		<rect x="0" y="0" width="6" height="6"/>
	</g>
	<g transform="translate(312,600) scale(4.12)">
		<rect x="0" y="0" width="6" height="6"/>
	</g>
	<g transform="translate(336,600) scale(4.12)">
		<rect x="0" y="0" width="6" height="6"/>
	</g>
	<g transform="translate(360,600) scale(4.12)">
		<rect x="0" y="0" width="6" height="6"/>
	</g>
	<g transform="translate(480,600) scale(4.12)">
		<rect x="0" y="0" width="6" height="6"/>
	</g>
	<g transform="translate(504,600) scale(4.12)">
		<rect x="0" y="0" width="6" height="6"/>
	</g>
	<g transform="translate(528,600) scale(4.12)">
		<rect x="0" y="0" width="6" height="6"/>
	</g>
	<g transform="translate(624,600) scale(4.12)">
		<rect x="0" y="0" width="6" height="6"/>
	</g>
	<g transform="translate(696,600) scale(4.12)">
		<rect x="0" y="0" width="6" height="6"/>
	</g>
	<g transform="translate(240,624) scale(4.12)">
		<rect x="0" y="0" width="6" height="6"/>
	</g>
	<g transform="translate(288,624) scale(4.12)">
		<rect x="0" y="0" width="6" height="6"/>
	</g>
	<g transform="translate(336,624) scale(4.12)">
		<rect x="0" y="0" width="6" height="6"/>
	</g>
	<g transform="translate(384,624) scale(4.12)">
		<rect x="0" y="0" width="6" height="6"/>
	</g>
	<g transform="translate(408,624) scale(4.12)">
		<rect x="0" y="0" width="6" height="6"/>
	</g>
	<g transform="translate(456,624) scale(4.12)">
		<rect x="0" y="0" width="6" height="6"/>
	</g>
	<g transform="translate(480,624) scale(4.12)">
		<rect x="0" y="0" width="6" height="6"/>
	</g>
	<g transform="translate(528,624) scale(4.12)">
		<rect x="0" y="0" width="6" height="6"/>
	</g>
	<g transform="translate(552,624) scale(4.12)">
		<rect x="0" y="0" width="6" height="6"/>
	</g>
	<g transform="translate(576,624) scale(4.12)">
		<rect x="0" y="0" width="6" height="6"/>
	</g>
	<g transform="translate(600,624) scale(4.12)">
		<rect x="0" y="0" width="6" height="6"/>
	</g>
	<g transform="translate(624,624) scale(4.12)">
		<rect x="0" y="0" width="6" height="6"/>
	</g>
	<g transform="translate(672,624) scale(4.12)">
		<rect x="0" y="0" width="6" height="6"/>
	</g>
	<g transform="translate(720,624) scale(4.12)">
		<rect x="0" y="0" width="6" height="6"/>
	</g>
	<g transform="translate(240,648) scale(4.12)">
		<rect x="0" y="0" width="6" height="6"/>
	</g>
	<g transform="translate(288,648) scale(4.12)">
		<rect x="0" y="0" width="6" height="6"/>
	</g>
	<g transform="translate(360,648) scale(4.12)">
		<rect x="0" y="0" width="6" height="6"/>
	</g>
	<g transform="translate(432,648) scale(4.12)">
		<rect x="0" y="0" width="6" height="6"/>
	</g>
	<g transform="translate(480,648) scale(4.12)">
		<rect x="0" y="0" width="6" height="6"/>
	</g>
	<g transform="translate(504,648) scale(4.12)">
		<rect x="0" y="0" width="6" height="6"/>
	</g>
	<g transform="translate(600,648) scale(4.12)">
		<rect x="0" y="0" width="6" height="6"/>
	</g>
	<g transform="translate(648,648) scale(4.12)">
		<rect x="0" y="0" width="6" height="6"/>
	</g>
	<g transform="translate(672,648) scale(4.12)">
		<rect x="0" y="0" width="6" height="6"/>
	</g>
	<g transform="translate(240,672) scale(4.12)">
		<rect x="0" y="0" width="6" height="6"/>
	</g>
	<g transform="translate(312,672) scale(4.12)">
		<rect x="0" y="0" width="6" height="6"/>
	</g>
	<g transform="translate(360,672) scale(4.12)">
		<rect x="0" y="0" width="6" height="6"/>
	</g>
	<g transform="translate(408,672) scale(4.12)">
		<rect x="0" y="0" width="6" height="6"/>
	</g>
	<g transform="translate(432,672) scale(4.12)">
		<rect x="0" y="0" width="6" height="6"/>
	</g>
	<g transform="translate(480,672) scale(4.12)">
		<rect x="0" y="0" width="6" height="6"/>
	</g>
	<g transform="translate(576,672) scale(4.12)">
		<rect x="0" y="0" width="6" height="6"/>
	</g>
	<g transform="translate(600,672) scale(4.12)">
		<rect x="0" y="0" width="6" height="6"/>
	</g>
	<g transform="translate(624,672) scale(4.12)">
		<rect x="0" y="0" width="6" height="6"/>
	</g>
	<g transform="translate(648,672) scale(4.12)">
		<rect x="0" y="0" width="6" height="6"/>
	</g>
	<g transform="translate(672,672) scale(4.12)">
		<rect x="0" y="0" width="6" height="6"/>
	</g>
	<g transform="translate(696,672) scale(4.12)">
		<rect x="0" y="0" width="6" height="6"/>
	</g>
	<g transform="translate(288,696) scale(4.12)">
		<rect x="0" y="0" width="6" height="6"/>
	</g>
	<g transform="translate(360,696) scale(4.12)">
		<rect x="0" y="0" width="6" height="6"/>
	</g>
	<g transform="translate(408,696) scale(4.12)">
		<rect x="0" y="0" width="6" height="6"/>
	</g>
	<g transform="translate(432,696) scale(4.12)">
		<rect x="0" y="0" width="6" height="6"/>
	</g>
	<g transform="translate(480,696) scale(4.12)">
		<rect x="0" y="0" width="6" height="6"/>
	</g>
	<g transform="translate(528,696) scale(4.12)">
		<rect x="0" y="0" width="6" height="6"/>
	</g>
	<g transform="translate(600,696) scale(4.12)">
		<rect x="0" y="0" width="6" height="6"/>
	</g>
	<g transform="translate(648,696) scale(4.12)">
		<rect x="0" y="0" width="6" height="6"/>
	</g>
	<g transform="translate(696,696) scale(4.12)">
		<rect x="0" y="0" width="6" height="6"/>
	</g>
	<g transform="translate(240,720) scale(4.12)">
		<rect x="0" y="0" width="6" height="6"/>
	</g>
	<g transform="translate(336,720) scale(4.12)">
		<rect x="0" y="0" width="6" height="6"/>
	</g>
	<g transform="translate(480,720) scale(4.12)">
		<rect x="0" y="0" width="6" height="6"/>
	</g>
	<g transform="translate(504,720) scale(4.12)">
		<rect x="0" y="0" width="6" height="6"/>
	</g>
	<g transform="translate(552,720) scale(4.12)">
		<rect x="0" y="0" width="6" height="6"/>
	</g>
	<g transform="translate(600,720) scale(4.12)">
		<rect x="0" y="0" width="6" height="6"/>
	</g>
	<g transform="translate(624,720) scale(4.12)">
		<rect x="0" y="0" width="6" height="6"/>
	</g>
	<g transform="translate(648,720) scale(4.12)">
		<rect x="0" y="0" width="6" height="6"/>
	</g>
	<g transform="translate(672,720) scale(4.12)">
		<rect x="0" y="0" width="6" height="6"/>
	</g>
	<g transform="translate(48,48)">
		<g transform="scale(12)">
			<path d="M0,0v14h14V0H0z M12,12H2V2h10V12z"/>
		</g>
	</g>
	<g transform="translate(576,48)">
		<g transform="scale(12)">
			<path d="M0,0v14h14V0H0z M12,12H2V2h10V12z"/>
		</g>
	</g>
	<g transform="translate(48,576)">
		<g transform="scale(12)">
			<path d="M0,0v14h14V0H0z M12,12H2V2h10V12z"/>
		</g>
	</g>
	<g transform="translate(96,96)">
		<g transform="scale(12)">
			<rect y="0" width="6" height="6"/>
		</g>
	</g>
	<g transform="translate(624,96)">
		<g transform="scale(12)">
			<rect y="0" width="6" height="6"/>
		</g>
	</g>
	<g transform="translate(96,624)">
		<g transform="scale(12)">
			<rect y="0" width="6" height="6"/>
		</g>
	</g>
</g>
</svg>
